<svg width="237" height="121" viewBox="0 0 237 121" fill="none" xmlns="http://www.w3.org/2000/svg">
<g clip-path="url(#clip0_4404_31)">
<path d="M18.9573 49.7326V55.1028C18.9573 61.5776 15.7244 65.2775 9.48315 65.2775C3.24187 65.2775 0 61.5776 0 55.1028V34.071C0 27.5963 3.23289 23.8964 9.47417 23.8964C15.7155 23.8964 18.9483 27.5963 18.9483 34.071V38.0044H12.9406V33.6669C12.9406 30.7753 11.6654 29.6797 9.6448 29.6797C7.62424 29.6797 6.34904 30.7753 6.34904 33.6669V55.5069C6.34904 58.3986 7.62424 59.4403 9.6448 59.4403C11.6654 59.4403 12.9406 58.3986 12.9406 55.5069V49.7236H18.9483L18.9573 49.7326ZM29.1858 64.8105H22.8278V24.3634H29.1858V41.6953H36.406V24.3634H42.8807V64.8105H36.406V47.4786H29.1858V64.8105ZM68.0704 64.8105H61.6585L60.5629 57.4736H52.759L51.6634 64.8105H45.8263L52.301 24.3634H61.6046L68.0793 64.8105H68.0704ZM53.5672 51.9867H59.6918L56.6295 31.5296L53.5672 51.9867ZM84.3156 64.8105C83.9654 63.7688 83.7409 63.1312 83.7409 59.8444V53.4864C83.7409 49.7326 82.4657 48.3407 79.5831 48.3407H77.3829V64.8105H71.0249V24.3634H80.6158C87.2073 24.3634 90.0361 27.4257 90.0361 33.6669V36.8459C90.0361 41.0038 88.707 43.7248 85.8782 45.0539C89.0572 46.383 90.0989 49.4452 90.0989 53.666V59.9072C90.0989 61.8739 90.1528 63.3197 90.7904 64.8195H84.3156V64.8105ZM77.3739 30.1377V42.5664H79.8614C82.2322 42.5664 83.678 41.5247 83.678 38.2918V34.3045C83.678 31.4129 82.6992 30.1467 80.4452 30.1467H77.3829L77.3739 30.1377ZM112.684 49.7326V55.1028C112.684 61.5776 109.451 65.2775 103.21 65.2775C96.9688 65.2775 93.7359 61.5776 93.7359 55.1028V34.071C93.7359 27.5963 96.9688 23.8964 103.21 23.8964C109.451 23.8964 112.684 27.5963 112.684 34.071V38.0044H106.676V33.6669C106.676 30.7753 105.401 29.6797 103.381 29.6797C101.36 29.6797 100.085 30.7753 100.085 33.6669V55.5069C100.085 58.3986 101.36 59.4403 103.381 59.4403C105.401 59.4403 106.676 58.3986 106.676 55.5069V49.7236H112.684V49.7326ZM122.625 24.3634V55.5698C122.625 58.4614 123.901 59.5031 125.921 59.5031C127.942 59.5031 129.217 58.4614 129.217 55.5698V24.3634H135.225V55.1657C135.225 61.6404 131.992 65.3403 125.751 65.3403C119.509 65.3403 116.276 61.6404 116.276 55.1657V24.3634H122.634H122.625ZM137.712 24.3634H157.361V30.1377H150.716V64.8105H144.358V30.1377H137.712V24.3634ZM178.51 64.8105H172.098L171.002 57.4736H163.198L162.103 64.8105H156.265L162.74 24.3634H172.044L178.519 64.8105H178.51ZM163.997 51.9867H170.122L167.06 31.5296L163.997 51.9867ZM194.746 64.8105C194.396 63.7688 194.171 63.1312 194.171 59.8444V53.4864C194.171 49.7326 192.896 48.3407 190.013 48.3407H187.813V64.8105H181.455V24.3634H191.046C197.638 24.3634 200.466 27.4257 200.466 33.6669V36.8459C200.466 41.0038 199.137 43.7248 196.308 45.0539C199.487 46.383 200.529 49.4452 200.529 53.666V59.9072C200.529 61.8739 200.583 63.3197 201.221 64.8195H194.746V64.8105ZM187.813 30.1377V42.5664H190.301C192.671 42.5664 194.117 41.5247 194.117 38.2918V34.3045C194.117 31.4129 193.138 30.1467 190.884 30.1467H187.822L187.813 30.1377ZM204.687 24.3634H211.045V64.8105H204.687V24.3634ZM236.235 64.8105H229.823L228.727 57.4736H220.923L219.828 64.8105H213.991L220.465 24.3634H229.769L236.244 64.8105H236.235ZM221.732 51.9867H227.856L224.794 31.5296L221.732 51.9867ZM125.993 1.22126L122.536 4.67866L117.848 -0.0090332L113.16 4.67866L109.703 1.22126L81.2534 5.70241L109.703 10.1836L113.16 6.72616L117.848 11.4139L122.536 6.72616L125.993 10.1836L154.442 5.70241L125.993 1.22126ZM61.9368 113.457H61.9548L64.146 109.604L65.4302 109.855L61.7932 115.666L61.0927 115.531L60.0061 108.778L61.2903 109.029L61.9368 113.448V113.457ZM67.4417 111.301L67.1993 112.657L69.1121 112.999L68.9235 114.04L67.0107 113.699L66.7143 115.36L68.699 115.72L68.5104 116.761L65.3314 116.187L66.436 110.035L69.615 110.61L69.4264 111.651L67.4417 111.292V111.301ZM71.4559 116.187L73.1532 116.465L72.9826 117.507L70.0819 117.031L71.0877 110.87L72.2911 111.068L71.4559 116.178V116.187ZM75.6138 116.573L74.9223 117.803L73.6561 117.623L76.9788 111.634L77.9127 111.768L79.3406 118.45L78.0564 118.261L77.769 116.887L75.6227 116.573H75.6138ZM77.1225 113.501H77.1045L76.0987 115.648L77.5625 115.863L77.1135 113.51L77.1225 113.501ZM85.0161 118.063L86.7313 118.261L86.6146 119.312L83.696 118.979L84.4054 112.774L85.6178 112.909L85.0251 118.063H85.0161ZM89.2099 118.261L88.5723 119.527L87.2971 119.401L90.3324 113.25L91.2753 113.34L93.0175 119.949L91.7244 119.824L91.3741 118.468L89.2099 118.261ZM90.5659 115.109H90.5479L89.6499 117.3L91.1317 117.444L90.5749 115.109H90.5659ZM95.532 120.129L94.3196 120.03L94.7238 114.857L93.4665 114.759L93.5473 113.699L97.2742 113.986L97.1933 115.046L95.9361 114.947L95.532 120.12V120.129ZM99.2588 120.398L98.0465 120.317L98.4506 114.085L99.6629 114.166L99.2588 120.398ZM101.261 114.103L102.141 114.148L105.213 118.665H105.231L105.437 114.471L106.65 114.534L106.344 120.892L105.464 120.847L102.393 116.33H102.375L102.168 120.569L100.956 120.506L101.27 114.103H101.261ZM109.335 119.536L108.787 120.838L107.503 120.802L110.098 114.453L111.041 114.48L113.25 120.955L111.948 120.919L111.499 119.59L109.326 119.536H109.335ZM110.475 116.303H110.457L109.712 118.557L111.194 118.593L110.475 116.303ZM119.671 117.821L119.689 118.773L117.668 118.809L117.65 117.857L119.671 117.821ZM127.358 115.926C127.116 115.621 126.81 115.432 126.406 115.441C126.02 115.45 125.652 115.764 125.67 116.169C125.706 117.219 128.166 116.707 128.229 118.8C128.265 120.048 127.52 120.964 126.235 121C125.373 121.027 124.727 120.551 124.278 119.841L125.041 119.051C125.221 119.527 125.67 119.94 126.2 119.931C126.693 119.913 126.99 119.482 126.972 119.006C126.954 118.36 126.352 118.198 125.858 118.018C125.041 117.713 124.448 117.327 124.412 116.357C124.377 115.324 125.122 114.462 126.182 114.426C126.738 114.408 127.52 114.66 127.906 115.073L127.358 115.935V115.926ZM130.932 120.659L129.72 120.713L129.441 114.471L130.654 114.417L130.932 120.659ZM132.234 114.184L133.114 114.13L136.671 118.288H136.689L136.428 114.094L137.64 114.022L138.036 120.38L137.155 120.434L133.599 116.276H133.581L133.842 120.515L132.629 120.587L132.225 114.184H132.234ZM143.46 115.199C143.082 114.813 142.553 114.615 142.032 114.651C140.873 114.75 140.29 115.881 140.379 116.95C140.469 118.001 141.25 118.988 142.382 118.89C142.903 118.845 143.397 118.53 143.702 118.108L143.828 119.554C143.397 119.806 142.948 120.003 142.445 120.048C140.694 120.201 139.275 118.8 139.122 117.085C138.969 115.315 140.083 113.654 141.906 113.501C142.391 113.457 142.885 113.555 143.325 113.744L143.451 115.199H143.46ZM146.136 114.328L146.279 115.693L148.21 115.495L148.318 116.546L146.387 116.743L146.558 118.423L148.56 118.216L148.668 119.267L145.453 119.599L144.816 113.385L148.031 113.052L148.138 114.103L146.136 114.31V114.328ZM153.535 113.474L153.392 112.424L155.412 112.154L156.239 118.351L155.035 118.512L154.353 113.367L153.535 113.474ZM159.777 117.453L160.774 115.468L160.756 115.45C160.63 115.531 160.459 115.585 160.289 115.612C159.157 115.782 158.304 114.911 158.142 113.843C157.945 112.567 158.717 111.517 159.983 111.319C161.205 111.131 162.282 111.849 162.471 113.097C162.588 113.834 162.345 114.615 162.031 115.28L160.765 117.965L159.777 117.453ZM159.346 113.609C159.427 114.166 159.893 114.705 160.495 114.615C161.097 114.525 161.384 113.87 161.303 113.313C161.223 112.756 160.747 112.217 160.145 112.307C159.543 112.397 159.265 113.052 159.346 113.609ZM163.845 112.514C163.665 111.463 164.33 110.619 165.345 110.448C166.359 110.278 167.266 110.834 167.455 111.894C167.554 112.46 167.347 113.043 166.88 113.385C167.59 113.519 168.021 114.067 168.146 114.777C168.335 115.89 167.5 116.743 166.467 116.923C165.434 117.103 164.357 116.573 164.168 115.468C164.042 114.759 164.267 114.094 164.895 113.726C164.348 113.564 163.953 113.07 163.854 112.514H163.845ZM164.94 112.325C165.012 112.729 165.354 113.142 165.803 113.07C166.252 112.99 166.431 112.487 166.359 112.083C166.287 111.678 165.946 111.274 165.497 111.346C165.048 111.427 164.869 111.93 164.94 112.325ZM165.354 115.127C165.434 115.576 165.803 116.016 166.296 115.926C166.79 115.836 166.997 115.297 166.916 114.848C166.835 114.39 166.467 113.95 165.973 114.04C165.479 114.13 165.273 114.669 165.354 115.127ZM169.242 111.553C169.035 110.502 169.691 109.649 170.697 109.46C171.703 109.263 172.628 109.811 172.834 110.861C172.942 111.427 172.744 112.02 172.286 112.37C173.005 112.496 173.445 113.034 173.579 113.735C173.795 114.839 172.978 115.72 171.945 115.917C170.912 116.115 169.826 115.612 169.61 114.507C169.475 113.798 169.682 113.133 170.302 112.756C169.745 112.603 169.341 112.118 169.233 111.562L169.242 111.553ZM170.338 111.346C170.418 111.75 170.769 112.154 171.209 112.074C171.658 111.984 171.828 111.481 171.747 111.077C171.667 110.682 171.325 110.269 170.876 110.358C170.427 110.448 170.257 110.951 170.338 111.346ZM170.805 114.139C170.894 114.588 171.271 115.019 171.765 114.92C172.259 114.822 172.448 114.283 172.367 113.834C172.277 113.376 171.9 112.945 171.406 113.043C170.912 113.142 170.724 113.681 170.805 114.139ZM56.9259 89.587L53.5493 99.4743L49.4453 98.5493L51.6275 79.0442L54.5371 79.6997L52.75 95.065L57.5814 80.3912L60.4641 81.0468L58.5423 96.4928L63.5084 81.7293L66.1216 82.322L59.7008 100.866L55.7315 99.9682L56.9348 89.587H56.9259ZM68.0165 82.5914L71.0338 83.1482L67.5226 102.33L64.5052 101.773L68.0165 82.5914ZM75.5599 89.3445L73.4944 103.318L70.7644 102.914L73.6202 83.6151L77.4278 84.1809L78.8287 96.1875L80.535 84.6389L83.238 85.034L80.3823 104.333L77.2661 103.875L75.5599 89.3356V89.3445ZM87.9706 93.8436L92.1554 94.2747L91.868 97.0496L87.6832 96.6185L87.0905 102.303L92.353 102.851L92.0656 105.626L83.7499 104.764L85.7704 85.3663L94.0862 86.2284L93.7988 89.0033L88.5364 88.4555L87.9706 93.8616V93.8436ZM102.968 96.0258C101.549 95.3523 100.938 94.0143 101.028 91.9219L101.046 91.5627C101.181 88.4465 102.761 86.8121 105.823 86.9468L109.335 87.0995L109.218 89.8833L105.769 89.7307C104.791 89.6858 104.189 90.1617 104.126 91.5537L104.072 92.7481C104 94.3106 104.683 94.8405 105.823 94.8854L107.161 94.9392L107.251 92.766L110.313 92.9007L110.224 95.0739L111.032 95.1099L110.915 97.8937L110.107 97.8578L109.829 104.261C109.784 105.204 109.784 105.904 110.062 106.641L106.946 106.506C106.82 106.111 106.748 105.823 106.73 104.961C106.156 106.084 105.177 106.649 103.812 106.596C101.558 106.497 100.48 104.862 100.606 101.998L100.687 100.022C100.776 98.0464 101.45 96.6275 102.977 96.0169L102.968 96.0258ZM105.168 103.875C106.084 103.911 106.721 103.47 106.829 102.249L107.027 97.7411L105.859 97.6872C104.467 97.6243 103.83 98.2709 103.749 100.076L103.668 101.881C103.605 103.273 104.198 103.83 105.168 103.875ZM127.08 99.3036L127.125 101.899C127.178 105.015 125.652 106.829 122.643 106.883C119.635 106.937 118.045 105.186 117.992 102.061L117.812 91.9219C117.758 88.8057 119.285 86.9917 122.293 86.9378C125.302 86.8839 126.891 88.6351 126.945 91.7602L126.981 93.6551L124.08 93.7089L124.044 91.6165C124.017 90.2246 123.398 89.7038 122.419 89.7217C121.44 89.7397 120.838 90.2785 120.865 91.6704L121.054 102.195C121.081 103.587 121.7 104.081 122.679 104.063C123.658 104.045 124.26 103.533 124.233 102.141L124.188 99.3575L127.089 99.3036H127.08ZM133.33 106.272L130.268 106.461L129.073 86.9917L132.136 86.8031L132.647 95.1458L136.123 94.9303L135.611 86.5876L138.727 86.399L139.921 105.868L136.805 106.057L136.293 97.7141L132.818 97.9297L133.33 106.272ZM145.211 94.0232L149.396 93.5832L149.683 96.3581L145.498 96.7981L146.091 102.483L151.353 101.935L151.641 104.71L143.325 105.581L141.295 86.1835L149.611 85.3124L149.898 88.0873L144.636 88.6351L145.202 94.0412L145.211 94.0232ZM156.104 92.7032L160.271 92.1015L160.675 94.8584L156.508 95.4601L157.334 101.109L162.57 100.345L162.974 103.102L154.703 104.306L151.892 84.9981L160.163 83.7947L160.567 86.5517L155.332 87.315L156.113 92.6942L156.104 92.7032ZM166.413 82.4477C169.341 81.8999 171.182 83.3727 171.756 86.4349L171.873 87.0366L169.026 87.5664L168.874 86.7762C168.622 85.4022 167.976 84.9891 167.015 85.1687C166.054 85.3483 165.605 85.968 165.865 87.3419C166.602 91.2843 172.628 90.9251 173.66 96.403C174.235 99.4743 173.032 101.513 170.068 102.061C167.114 102.617 165.246 101.145 164.671 98.0823L164.446 96.9059L167.293 96.3761L167.554 97.7501C167.805 99.1151 168.506 99.5012 169.466 99.3216C170.427 99.142 170.939 98.5403 170.679 97.1663C169.942 93.224 163.917 93.5832 162.884 88.1053C162.309 85.034 163.486 83.0045 166.422 82.4567L166.413 82.4477ZM177.845 88.7159L181.949 87.773L182.578 90.485L178.474 91.428L179.749 96.9957L184.904 95.8103L185.523 98.5224L177.378 100.39L173.014 81.3791L181.159 79.5112L181.787 82.2232L176.633 83.4086L177.845 88.7069V88.7159ZM119.689 79.0621L134.973 77.5984L119.689 76.1346L117.48 73.9254L115.271 76.1346L99.9862 77.5984L115.271 79.0621L117.48 81.2713L119.689 79.0621Z" fill="white"/>
</g>
<defs>
<clipPath id="clip0_4404_31">
<rect width="236.235" height="121" fill="white"/>
</clipPath>
</defs>
</svg>
