<svg width="198" height="57" viewBox="0 0 198 57" fill="none" xmlns="http://www.w3.org/2000/svg">
<g clip-path="url(#clip0_4401_10)">
<path d="M111.269 20.8958H102.261V12.2091H111.005V9.92119H102.261V3.34547H111.269V1.05755H99.7962V23.1837H111.269V20.8958ZM127.572 20.9246H118.565V1.08635H116.1V23.2125H127.572V20.9246ZM94.5867 1.05755H92.1218V16.1019L81.9702 1.05755H78.9951L94.5785 24.1837V24.1754L94.5867 24.1837V1.05755ZM97.0433 31.0557H94.5785V53.1819H106.051V50.8939H97.0433V31.0557ZM109.15 53.1489H111.849L114.52 46.8695H123.968L126.581 53.1489H129.309L119.363 29.9652L109.15 53.1489ZM115.52 44.5816L119.305 35.7179L123.001 44.5816H115.52ZM130.329 23.1837H133.029L135.699 16.9043H145.147L147.76 23.1837H150.489L140.543 0L130.329 23.1837ZM136.699 14.6164L140.485 5.75273L144.18 14.6164H136.699ZM146.139 53.1489H148.604V31.0228H146.139V53.1489ZM128.897 33.3148H134.239V53.1531H136.703V33.3148H142.102V31.0269H128.897V33.3148ZM171.895 48.1904L154.641 30.1133V53.1777H157.105V36.1294L174.359 54.1777V31.0516H171.895V48.1904ZM188.054 29.9981L177.841 53.1819H180.54L183.211 46.9024H192.659L195.272 53.1819H198L188.054 29.9981ZM184.211 44.6104L187.997 35.7467L191.696 44.6104H184.215H184.211ZM33.5082 1.91346H3.06565L2.1727 0.571981L0 2.01634L36.1171 56.1899V1.07401H33.5082V1.91346ZM33.5082 47.5814L3.6829 2.84344H33.5082V47.5773V47.5814ZM45.1659 2.29204V1.07401H42.557V53.186H78.168V50.5771H77.3573L45.1659 2.29204ZM45.1659 50.5812V3.97095L76.238 50.5812H45.1659Z" fill="white"/>
</g>
<defs>
<clipPath id="clip0_4401_10">
<rect width="198" height="56.1899" fill="white"/>
</clipPath>
</defs>
</svg>
