<svg width="248" height="89" viewBox="0 0 248 89" fill="none" xmlns="http://www.w3.org/2000/svg">
<g clip-path="url(#clip0_4404_99)">
<path d="M52.4358 17.386L54.5141 16.3483C55.2408 15.9877 55.8932 15.8583 56.4712 15.9657C57.0465 16.0703 57.498 16.4446 57.8145 17.0832C58.1311 17.7219 58.1614 18.3082 57.9026 18.8367C57.6384 19.3652 57.1484 19.8139 56.4189 20.1718L55.0674 20.8462L56.7217 24.1659L55.995 24.5292L52.4358 17.3833V17.386ZM54.737 20.1828L55.9069 19.5992C56.2317 19.4368 56.4905 19.2689 56.6804 19.0899C56.8704 18.9083 57.0052 18.7321 57.0878 18.5532C57.1676 18.3743 57.2007 18.1953 57.1842 18.0136C57.1704 17.832 57.1181 17.6558 57.03 17.4796C56.9474 17.3117 56.8373 17.1658 56.7024 17.0475C56.5648 16.9263 56.3996 16.841 56.2097 16.7942C56.017 16.7474 55.7913 16.7474 55.5353 16.7942C55.2793 16.841 54.9875 16.9484 54.6655 17.108L53.4956 17.6916L54.737 20.1828Z" fill="white"/>
<path d="M62.7501 21.2756L62.0096 21.6142L58.6899 14.3526L59.4276 14.0168L62.7501 21.2756Z" fill="white"/>
<path d="M66.6177 11.6632L64.8532 19.5166L69.2079 17.6916L69.497 18.377L64.1898 20.5984L63.931 19.9735L65.7038 12.1174L61.4591 13.8929L61.1729 13.2074L66.3534 11.0411L66.6149 11.6632H66.6177Z" fill="white"/>
<path d="M73.0451 9.27387L70.9365 17.0392L75.3711 15.4096L75.6271 16.1088L70.2291 18.0907L69.9951 17.4576L72.1147 9.68677L67.793 11.2723L67.5397 10.5759L72.8084 8.638L73.0451 9.27387Z" fill="white"/>
<path d="M77.0007 15.6408L76.0951 15.9216L77.0255 7.26443L77.7797 7.03046L83.4805 13.6121L82.5749 13.8956L81.1077 12.1559L77.2154 13.3754L77.0007 15.6408ZM77.2843 12.5744L80.5875 11.5393L77.6889 8.0517L77.2843 12.5744Z" fill="white"/>
<path d="M92.3166 9.53265L94.483 10.9338L93.3599 11.1898L92.0001 10.3006C91.7744 10.7906 91.5073 11.198 91.1963 11.5201C90.8825 11.8421 90.4641 12.0651 89.9383 12.1862C89.6135 12.2606 89.2914 12.2826 88.9749 12.2495C88.6556 12.2193 88.361 12.1367 88.0968 11.9963C87.827 11.8559 87.5958 11.666 87.4031 11.421C87.2077 11.176 87.07 10.8787 86.9874 10.5264C86.9241 10.2401 86.9104 9.97032 86.9489 9.71432C86.9902 9.45832 87.0728 9.21884 87.1966 8.99312C87.3178 8.7674 87.4664 8.5582 87.6481 8.36276C87.8243 8.16732 88.0197 7.98839 88.2289 7.82323C87.9371 7.62779 87.6619 7.39932 87.4059 7.13781C87.1499 6.87631 86.9792 6.56801 86.8966 6.20741C86.8305 5.91287 86.8168 5.64311 86.8663 5.39262C86.9131 5.14487 87.004 4.91915 87.1471 4.72096C87.2902 4.52277 87.4637 4.35761 87.6811 4.21997C87.8958 4.08784 88.1408 3.98875 88.4243 3.92544C88.6776 3.86488 88.9308 3.84836 89.1758 3.87314C89.4181 3.89791 89.6465 3.96397 89.853 4.07133C90.0594 4.17593 90.2356 4.32733 90.3843 4.52002C90.5329 4.7127 90.6402 4.95219 90.7063 5.23847C90.7669 5.49446 90.7669 5.73395 90.7118 5.95967C90.6568 6.18263 90.5632 6.4001 90.4393 6.60104C90.3127 6.80474 90.1585 6.99192 89.9851 7.16809C89.8117 7.34427 89.6355 7.50392 89.4593 7.65257L91.678 9.08396L92.3166 6.99192L93.2058 6.78822L92.3304 9.52439L92.3166 9.53265ZM89.9025 5.4284C89.831 5.1201 89.6713 4.89713 89.4181 4.7595C89.1703 4.62186 88.8923 4.58608 88.5895 4.6549C88.2564 4.72922 88.0087 4.89713 87.8325 5.15313C87.6536 5.40913 87.6068 5.71468 87.6866 6.06702C87.7169 6.1964 87.7802 6.32853 87.8766 6.4579C87.9701 6.58728 88.0748 6.70289 88.1876 6.80749C88.3005 6.91209 88.4133 7.00569 88.5289 7.09102C88.6473 7.17635 88.7437 7.23966 88.8207 7.2727C88.9474 7.15158 89.0822 7.02495 89.2281 6.89558C89.374 6.7662 89.5089 6.62582 89.6245 6.47442C89.7374 6.32577 89.8255 6.16061 89.8805 5.98719C89.9356 5.81102 89.9438 5.62659 89.897 5.4284H89.9025ZM88.8317 8.20861C88.6088 8.41506 88.4216 8.59949 88.2729 8.77015C88.1243 8.94082 88.0114 9.10873 87.9371 9.27665C87.8573 9.44456 87.8105 9.61523 87.7995 9.78865C87.7857 9.96206 87.7995 10.1465 87.8463 10.3447C87.8958 10.5649 87.9867 10.7576 88.116 10.92C88.2454 11.0824 88.3968 11.209 88.5757 11.3026C88.7519 11.399 88.9418 11.4595 89.151 11.4898C89.3575 11.5201 89.5667 11.5118 89.7814 11.4595C89.9934 11.41 90.1778 11.3384 90.3375 11.2366C90.4944 11.1402 90.6375 11.0218 90.7641 10.8842C90.8907 10.7466 91.0036 10.5952 91.1055 10.4245C91.2046 10.2538 91.2981 10.0749 91.3862 9.88499L88.8345 8.20585L88.8317 8.20861Z" fill="white"/>
<path d="M105.618 7.83151C105.513 8.05447 105.378 8.26643 105.207 8.47563C105.037 8.68484 104.836 8.87202 104.602 9.03993C104.371 9.20785 104.112 9.35099 103.828 9.46935C103.548 9.58772 103.242 9.6703 102.915 9.71984C102.328 9.80793 101.767 9.78591 101.235 9.65378C100.701 9.5189 100.222 9.29593 99.8012 8.98488C99.3773 8.67107 99.0222 8.27744 98.7387 7.80398C98.4552 7.32777 98.2707 6.79099 98.1799 6.18816C98.0891 5.58532 98.1111 5.01551 98.2432 4.47874C98.3781 3.94472 98.5983 3.463 98.9121 3.03909C99.2287 2.61518 99.6168 2.26283 100.09 1.97931C100.561 1.69853 101.089 1.51135 101.676 1.42327C102.169 1.34894 102.672 1.37372 103.19 1.49208C103.71 1.6132 104.178 1.8692 104.594 2.26283L103.972 2.8932C103.867 2.78034 103.74 2.67023 103.581 2.56563C103.421 2.46103 103.242 2.37294 103.047 2.30412C102.851 2.23531 102.642 2.18576 102.425 2.15823C102.21 2.12795 101.995 2.1307 101.789 2.16098C101.282 2.23806 100.842 2.39771 100.47 2.6427C100.096 2.88769 99.793 3.19049 99.5617 3.54283C99.3305 3.89793 99.1709 4.29156 99.0828 4.72648C98.9947 5.16141 98.9864 5.60459 99.0525 6.05878C99.1213 6.51297 99.2589 6.93413 99.4681 7.32501C99.6801 7.71589 99.9471 8.04621 100.272 8.31598C100.597 8.58574 100.977 8.78393 101.403 8.91056C101.833 9.03718 102.301 9.06195 102.807 8.98488C103.014 8.9546 103.217 8.90505 103.415 8.83623C103.614 8.76742 103.806 8.67383 103.991 8.55546C104.175 8.4371 104.343 8.28845 104.495 8.10953C104.646 7.9306 104.781 7.71589 104.894 7.46265L105.62 7.83151H105.618Z" fill="white"/>
<path d="M114.762 4.23094C114.817 4.83653 114.762 5.40358 114.597 5.9321C114.432 6.46061 114.181 6.92582 113.843 7.33046C113.504 7.73235 113.091 8.06267 112.604 8.31592C112.119 8.57192 111.58 8.72332 110.988 8.77837C110.396 8.83067 109.837 8.77287 109.314 8.61046C108.789 8.4453 108.326 8.1948 107.922 7.85622C107.522 7.5204 107.192 7.10474 106.936 6.61476C106.68 6.12479 106.526 5.57425 106.471 4.96866C106.419 4.36307 106.471 3.79602 106.636 3.2675C106.801 2.73899 107.052 2.27379 107.39 1.86914C107.729 1.4645 108.139 1.13693 108.629 0.880931C109.113 0.627685 109.653 0.473534 110.242 0.421233C110.837 0.368933 111.393 0.426739 111.918 0.589147C112.444 0.754308 112.907 1.0048 113.309 1.34338C113.71 1.67921 114.044 2.09486 114.297 2.58484C114.55 3.07482 114.704 3.62535 114.759 4.23094H114.762ZM113.887 4.31077C113.845 3.85107 113.73 3.42165 113.543 3.01976C113.358 2.62063 113.11 2.27379 112.805 1.98476C112.494 1.69297 112.13 1.47276 111.709 1.32411C111.288 1.17272 110.82 1.11766 110.311 1.16446C109.802 1.21125 109.356 1.34613 108.968 1.5691C108.579 1.79207 108.26 2.07284 108.007 2.41142C107.751 2.75275 107.569 3.13538 107.456 3.56479C107.343 3.99421 107.308 4.43464 107.346 4.89159C107.388 5.34853 107.503 5.7807 107.688 6.18259C107.875 6.58448 108.123 6.92857 108.434 7.22035C108.742 7.50939 109.105 7.7296 109.526 7.881C109.948 8.03239 110.415 8.08745 110.922 8.04065C111.431 7.99661 111.877 7.86173 112.268 7.63876C112.656 7.41579 112.973 7.13502 113.229 6.79644C113.479 6.45786 113.664 6.07249 113.777 5.64307C113.889 5.21365 113.925 4.77322 113.887 4.31628V4.31077Z" fill="white"/>
<path d="M117.779 8.12326L116.967 8.15079L116.694 0.173523L121.506 0.00836182L121.531 0.751586L117.528 0.886467L117.622 3.60336L121.341 3.47674L121.366 4.21996L117.647 4.34659L117.776 8.12051L117.779 8.12326Z" fill="white"/>
<path d="M124.239 7.99115L123.427 7.9829L123.507 0.00012207L128.322 0.0469176L128.316 0.792894L124.311 0.751604L124.284 3.4685L128.005 3.50704L128 4.25301L124.281 4.21723L124.242 7.99391L124.239 7.99115Z" fill="white"/>
<path d="M130.78 7.40204L135.049 7.63877L135.008 8.38199L129.932 8.10122L130.372 0.129456L135.316 0.404724L135.275 1.14795L131.143 0.919475L130.995 3.63362L134.857 3.84833L134.815 4.59155L130.956 4.37684L130.783 7.40479L130.78 7.40204Z" fill="white"/>
<path d="M137.752 7.88375L142.003 8.32143L141.925 9.0619L136.869 8.54164L137.689 0.600159L142.611 1.10665L142.537 1.84712L138.419 1.42321L138.141 4.12634L141.989 4.52273L141.912 5.2632L138.061 4.86406L137.752 7.881V7.88375Z" fill="white"/>
<path d="M153.798 9.71154C153.627 9.88771 153.429 10.0474 153.203 10.1905C152.975 10.3336 152.721 10.4465 152.449 10.5291C152.176 10.6144 151.885 10.6667 151.579 10.6887C151.271 10.7108 150.957 10.6887 150.632 10.6337C150.049 10.5291 149.526 10.3281 149.063 10.0308C148.601 9.73631 148.221 9.3702 147.918 8.93803C147.618 8.50586 147.409 8.02139 147.293 7.47911C147.178 6.93959 147.172 6.36703 147.279 5.7697C147.387 5.17237 147.588 4.63835 147.888 4.17314C148.188 3.70519 148.548 3.32256 148.983 3.02252C149.415 2.72248 149.897 2.51328 150.434 2.39491C150.971 2.27655 151.532 2.27379 152.113 2.37564C152.603 2.46373 153.074 2.64816 153.528 2.92618C153.982 3.20695 154.34 3.59783 154.61 4.10433L153.817 4.50347C153.759 4.36308 153.668 4.21719 153.553 4.06579C153.437 3.91439 153.291 3.77676 153.129 3.64463C152.964 3.51525 152.785 3.40515 152.587 3.3088C152.388 3.21246 152.19 3.14364 151.981 3.10786C151.48 3.01702 151.009 3.02803 150.577 3.14364C150.145 3.2565 149.762 3.44368 149.429 3.70243C149.096 3.96394 148.818 4.286 148.598 4.67138C148.375 5.054 148.224 5.47241 148.144 5.92385C148.064 6.37529 148.061 6.82122 148.133 7.25615C148.207 7.69382 148.356 8.09296 148.579 8.45356C148.799 8.81416 149.093 9.12246 149.462 9.37846C149.828 9.63446 150.261 9.80788 150.764 9.89872C150.971 9.93726 151.18 9.95377 151.392 9.95377C151.601 9.95377 151.81 9.92625 152.025 9.87119C152.234 9.81614 152.441 9.7308 152.644 9.60969C152.848 9.48857 153.044 9.32891 153.231 9.12522L153.8 9.70878L153.798 9.71154Z" fill="white"/>
<path d="M161.365 9.71983C161.288 10.0419 161.167 10.375 161.007 10.7163C160.845 11.0631 160.622 11.3604 160.335 11.6192C160.052 11.8752 159.699 12.0596 159.284 12.1752C158.865 12.2881 158.367 12.2771 157.789 12.1422C157.206 12.0046 156.751 11.7898 156.435 11.5036C156.118 11.2145 155.887 10.8925 155.749 10.5346C155.612 10.1768 155.543 9.80792 155.551 9.42805C155.562 9.04542 155.603 8.69583 155.681 8.37377L156.831 3.50153L157.621 3.68871L156.49 8.47287C156.402 8.84448 156.36 9.1748 156.369 9.45833C156.383 9.74185 156.424 9.99235 156.498 10.2016C156.578 10.4135 156.677 10.5897 156.804 10.7328C156.928 10.8732 157.06 10.9916 157.195 11.0852C157.329 11.1788 157.464 11.2531 157.602 11.3026C157.734 11.3522 157.852 11.3907 157.957 11.4155C158.053 11.4375 158.172 11.4568 158.32 11.4733C158.466 11.4871 158.62 11.4843 158.786 11.4595C158.951 11.4375 159.119 11.3907 159.295 11.3191C159.471 11.2476 159.639 11.1347 159.804 10.9833C159.969 10.8292 160.118 10.6282 160.256 10.3777C160.39 10.13 160.503 9.81617 160.594 9.44456L161.728 4.6604L162.518 4.85034L161.362 9.72258L161.365 9.71983Z" fill="white"/>
<path d="M163.842 12.7257L167.418 13.7552L167.212 14.4709L162.857 13.2185L165.062 5.54675L165.844 5.76972L163.845 12.7257H163.842Z" fill="white"/>
<path d="M169.909 15.3545L169.138 15.104L171.382 8.21959L168.844 7.39103L169.075 6.68359L174.927 8.59395L174.696 9.30139L172.155 8.47284L169.912 15.3545H169.909Z" fill="white"/>
<path d="M180.24 15.9436C180.122 16.2547 179.959 16.5685 179.756 16.8878C179.549 17.2071 179.288 17.4769 178.968 17.6916C178.652 17.9063 178.28 18.0467 177.853 18.1017C177.424 18.1595 176.931 18.0825 176.375 17.8705C175.816 17.6558 175.395 17.3833 175.117 17.0557C174.839 16.7309 174.658 16.3786 174.567 16.0069C174.476 15.6353 174.462 15.261 174.52 14.8838C174.581 14.5095 174.669 14.1654 174.784 13.8571L176.573 9.18304L177.333 9.47208L175.574 14.0635C175.437 14.4214 175.357 14.7407 175.326 15.0242C175.299 15.3078 175.31 15.5583 175.357 15.7785C175.406 16.0014 175.483 16.1859 175.588 16.3455C175.693 16.5024 175.805 16.6346 175.929 16.7474C176.05 16.8575 176.174 16.9484 176.301 17.0172C176.43 17.086 176.54 17.1383 176.64 17.1768C176.728 17.2099 176.846 17.2456 176.992 17.2814C177.138 17.3172 177.289 17.3337 177.457 17.331C177.622 17.331 177.796 17.3062 177.98 17.2594C178.162 17.2126 178.346 17.1245 178.525 16.9924C178.71 16.863 178.883 16.6813 179.054 16.4501C179.222 16.2216 179.373 15.9271 179.513 15.572L181.267 10.9805L182.027 11.2696L180.237 15.9436H180.24Z" fill="white"/>
<path d="M181.977 19.9185L181.237 19.5909L184.457 12.2853L186.706 13.2762C187.452 13.6038 187.964 14.025 188.253 14.5397C188.539 15.0517 188.537 15.6353 188.248 16.2877C188.025 16.7969 187.675 17.1548 187.204 17.3612C186.728 17.5677 186.18 17.5649 185.547 17.353L186.123 21.749L185.214 21.3499L184.71 17.0722L183.472 16.5272L181.974 19.9212L181.977 19.9185ZM183.774 15.8417L185.096 16.4253C185.429 16.5712 185.721 16.6593 185.982 16.6923C186.241 16.7254 186.467 16.7143 186.657 16.662C186.844 16.6097 187.003 16.5189 187.133 16.3923C187.262 16.2657 187.364 16.1143 187.444 15.9326C187.518 15.7592 187.562 15.583 187.568 15.4013C187.573 15.2196 187.535 15.038 187.447 14.8618C187.361 14.6829 187.218 14.5122 187.017 14.3443C186.813 14.1764 186.546 14.0195 186.219 13.8736L184.9 13.2928L183.774 15.839V15.8417Z" fill="white"/>
<path d="M188.633 22.1454L192.459 24.0503L192.126 24.7164L187.576 22.451L191.132 15.3022L195.564 17.5099L195.234 18.1788L191.529 16.3317L190.315 18.7651L193.778 20.491L193.445 21.1572L189.982 19.4313L188.63 22.1482L188.633 22.1454Z" fill="white"/>
<path d="M9.76926 56.2264H23.6373V54.9656H9.76926V40.7838C9.76926 36.6521 10.6969 33.3241 12.555 30.8026C14.4103 28.2812 17.0198 27.0204 20.3808 27.0204C22.8307 27.0204 24.7383 27.6508 26.1064 28.9115C26.8331 29.5832 27.4525 30.2851 27.9727 31.0146C26.233 31.5293 24.9613 33.1369 24.9613 35.0417C24.9613 37.3623 26.8414 39.2451 29.1647 39.2451C31.4879 39.2451 33.368 37.365 33.368 35.0417C33.368 34.2435 33.1395 33.4975 32.7541 32.8616C32.6523 32.6524 30.9787 30.2053 29.8941 29.2253C28.8068 28.2454 27.4938 27.4251 25.955 26.7562C24.4108 26.09 22.6959 25.757 20.8048 25.757C18.2861 25.757 15.9903 26.1781 13.9258 27.0177C11.8585 27.8573 10.1244 29.0134 8.72325 30.4833C7.32488 31.9532 6.23758 33.6709 5.46958 35.6308C4.69883 37.5935 4.31345 39.7268 4.31345 42.0391V54.9601H0V56.2209H4.30795V88.3447H9.76926V56.2209V56.2264Z" fill="white"/>
<path d="M53.2837 88.0446C50.7705 85.5314 48.8739 82.363 47.5994 78.5396C46.3249 74.7161 45.6863 70.6118 45.6863 66.2186C45.6863 61.8253 46.3249 57.7238 47.5994 53.9003C48.8739 50.0768 50.7677 46.9085 53.2837 44.3953C55.7941 41.8821 58.9267 40.6241 62.6786 40.6241C66.4305 40.6241 69.5823 41.8821 72.134 44.3953C74.6803 46.9085 76.5934 50.0768 77.8679 53.9003C79.1424 57.7238 79.781 61.8308 79.781 66.2186C79.781 70.6063 79.1424 74.7133 77.8679 78.5396C76.5934 82.363 74.6995 85.5314 72.1863 88.0446C72.0707 88.1602 71.9331 88.24 71.8147 88.3501H76.4145C77.4577 87.5381 78.4487 86.6545 79.3543 85.6552C81.4794 83.321 83.1613 80.5408 84.4 77.3201C85.6387 74.0995 86.258 70.5761 86.258 66.7526C86.258 62.9291 85.6387 59.2488 84.4 55.9208C83.1613 52.5928 81.4794 49.6915 79.3543 47.2141C77.2292 44.7366 74.7353 42.7905 71.8698 41.3729C69.0015 39.958 65.9378 39.2478 62.6813 39.2478C59.4249 39.2478 56.3804 39.9552 53.5507 41.3729C50.7182 42.7905 48.2408 44.7366 46.1157 47.2141C43.9906 49.6915 42.3087 52.5955 41.07 55.9208C39.8286 59.2488 39.212 62.8603 39.212 66.7526C39.212 70.6449 39.8313 74.0995 41.07 77.3201C42.306 80.5435 43.9906 83.321 46.1157 85.6552C47.0241 86.6545 48.0095 87.5381 49.0445 88.3501H53.6525C53.5342 88.24 53.3993 88.1602 53.2837 88.0446Z" fill="white"/>
<path d="M105.587 53.9031C105.799 52.1331 106.259 50.5421 106.966 49.1244C107.674 47.7095 108.541 46.5066 109.57 45.5129C110.594 44.5219 111.745 43.7622 113.022 43.2309C114.297 42.6997 115.569 42.4354 116.843 42.4354C118.046 42.4354 119.037 42.6308 119.819 43.019C120.598 43.4099 121.234 43.853 121.732 44.3458C122.296 44.9816 122.756 45.656 123.114 46.3635C123.326 46.1515 123.538 45.8708 123.749 45.5129C124.176 44.9486 124.388 44.2769 124.388 43.4952C124.388 42.5042 123.873 41.549 122.849 40.6269C121.82 39.7075 120.353 39.2478 118.44 39.2478C116.953 39.2478 115.502 39.5313 114.088 40.0984C112.67 40.6654 111.379 41.461 110.209 42.4877C109.045 43.5145 108.015 44.7009 107.132 46.0442C106.242 47.3902 105.554 48.8051 105.062 50.2916H104.53L105.593 40.5195H100.068V88.3501H105.593V53.9031H105.587Z" fill="white"/>
<path d="M168.987 85.4983C170.118 83.9045 170.683 82.1896 170.683 80.3481C170.683 79.5691 170.435 78.8974 169.939 78.3304C169.444 77.7633 168.877 77.3752 168.241 77.1605C168.241 79.0736 167.834 80.8958 167.019 82.63C166.207 84.367 165.122 85.9057 163.779 87.249C163.372 87.6564 162.904 87.9923 162.455 88.3501H166.287C167.302 87.4803 168.236 86.5526 168.987 85.4983Z" fill="white"/>
<path d="M142.33 87.728C139.498 85.0717 137.513 81.6941 136.384 77.5871C136.665 74.6142 137.411 72.1561 138.614 70.2072C139.817 68.2611 141.339 66.7388 143.181 65.6405C145.019 64.5422 147.073 63.7659 149.341 63.3035C151.607 62.8438 153.957 62.5603 156.402 62.4529C158.846 62.3456 161.304 62.3483 163.782 62.4529C166.259 62.5575 168.56 62.6483 170.685 62.7172C170.685 59.7443 170.278 56.8402 169.466 54.0077C168.651 51.1779 167.429 48.6647 165.802 46.4681C164.173 44.2742 162.138 42.5207 159.697 41.2105C157.252 39.9029 154.365 39.2451 151.04 39.2451C147.431 39.2451 144.227 40.0791 141.43 41.739C138.63 43.4044 136.28 45.5625 134.367 48.216C132.453 50.8724 131.022 53.8288 130.064 57.0852C129.109 60.3416 128.633 63.598 128.633 66.8572C128.633 70.6807 129.164 74.2206 130.227 77.477C131.289 80.7335 132.861 83.5494 134.953 85.9195C135.737 86.8141 136.618 87.6069 137.546 88.3474H143.068C142.82 88.1437 142.57 87.9455 142.333 87.7253L142.33 87.728ZM163.413 55.0702C163.873 57.4788 164.137 59.5681 164.208 61.3353H159.322C157.128 61.3353 154.844 61.4234 152.474 61.5996C150.101 61.7757 147.816 62.1831 145.625 62.819C143.428 63.4576 141.43 64.4128 139.621 65.6873C137.816 66.9618 136.384 68.7318 135.322 70.9972C135.25 70.4329 135.217 69.8659 135.217 69.2988V67.5977C135.217 65.0487 135.446 62.1997 135.905 59.0478C136.365 55.8988 137.196 52.9424 138.402 50.1815C139.605 47.4205 141.268 45.1193 143.393 43.2777C145.518 41.4362 148.243 40.5168 151.568 40.5168C153.905 40.5168 155.854 41.26 157.409 42.7465C158.967 44.2329 160.242 46.0579 161.236 48.216" fill="white"/>
<path d="M212.314 85.446C213.305 83.6761 213.803 81.6584 213.803 79.3929C213.803 77.1274 213.165 74.9501 211.89 73.0727C210.616 71.1982 209.025 69.4612 207.112 67.8674C205.199 66.2736 203.145 64.7707 200.951 63.353C198.757 61.9381 196.704 60.4875 194.791 58.9983C192.88 57.5118 191.287 55.9566 190.012 54.3242C188.738 52.6974 188.102 50.8916 188.102 48.9097C188.102 45.868 189.09 43.7044 191.075 42.4327C193.057 41.1582 195.322 40.5195 197.874 40.5195C199.217 40.5195 200.491 40.8223 201.694 41.4224C202.897 42.0253 203.96 42.8401 204.879 43.8641C205.801 44.8908 206.473 46.0772 206.9 47.4205C207.324 48.7666 207.392 50.1484 207.112 51.5633C208.103 51.5633 208.827 51.244 209.289 50.6081C209.749 49.9722 210.013 49.3722 210.085 48.8024C210.153 47.671 209.886 46.5176 209.289 45.3505C208.686 44.1806 207.838 43.1373 206.737 42.2179C205.639 41.2986 204.331 40.5553 202.809 39.9883C201.287 39.424 199.677 39.1377 197.976 39.1377C196.274 39.1377 194.631 39.3331 192.828 39.7213C191.022 40.1121 189.376 40.748 187.887 41.6344C186.401 42.5207 185.181 43.6879 184.223 45.1385C183.268 46.5892 182.789 48.3784 182.789 50.5008C182.789 52.8378 183.425 54.9078 184.699 56.7136C185.974 58.5193 187.548 60.2012 189.426 61.7592C191.3 63.3172 193.335 64.7707 195.531 66.114C197.722 67.46 199.759 68.8749 201.637 70.3614C203.511 71.8478 205.088 73.4581 206.363 75.1923C207.637 76.9292 208.273 78.8919 208.273 81.0858C208.273 84.133 207.332 86.5278 205.556 88.3474H210.098C210.935 87.4748 211.698 86.5306 212.306 85.4405L212.314 85.446Z" fill="white"/>
<path d="M185.66 85.391C184.809 83.6568 184.333 81.9392 184.226 80.2408C184.121 78.5424 184.209 77.3037 184.49 76.5247C183.499 76.4558 182.649 76.7724 181.944 77.4798C181.234 78.1873 180.846 79.1782 180.774 80.4527C180.702 82.1511 181.002 83.7807 181.68 85.3387C182.148 86.4233 182.794 87.4225 183.607 88.3529H187.741C186.893 87.4445 186.189 86.4646 185.663 85.3938L185.66 85.391Z" fill="white"/>
<path d="M233.237 84.1716V41.7968H244.284V40.4177H233.237V32.5588H227.713V40.4177H222.722V41.7968H227.713V80.6674C227.713 82.8613 228.013 84.7552 228.618 86.349C228.896 87.0867 229.221 87.7446 229.576 88.3529H233.926C233.482 87.2381 233.237 85.8645 233.237 84.1716Z" fill="white"/>
<path d="M247.149 88.0446C247.716 86.949 248 85.7268 248 84.3808C248 83.5302 247.681 82.8063 247.045 82.2034C246.409 81.6033 245.663 81.3005 244.815 81.3005C244.956 81.8676 245.027 82.4677 245.027 83.1063C245.027 85.2341 244.647 86.9821 243.888 88.3501H246.954C247.015 88.2428 247.094 88.1547 247.152 88.0446H247.149Z" fill="white"/>
</g>
<defs>
<clipPath id="clip0_4404_99">
<rect width="248" height="88.35" fill="white"/>
</clipPath>
</defs>
</svg>
