<svg width="190" height="136" viewBox="0 0 190 136" fill="none" xmlns="http://www.w3.org/2000/svg">
<g clip-path="url(#clip0_4401_18)">
<path d="M87.1628 0.490479H84.6224V1.30795H54.9756L54.1037 0L51.9908 1.40856L87.1628 54.1665V0.490479ZM84.6224 45.7781L55.5793 2.21345H84.6224V45.7781ZM128.116 48.7042H127.323L95.9747 1.67685V0.490479H93.4342V51.2404H128.116V48.7V48.7042ZM95.9747 48.7042V3.31178L126.233 48.7042H95.9747ZM60.8781 103.294H58.8156V113.259H60.8362C63.9803 113.259 66.4663 111.62 66.4663 108.224C66.4663 104.828 63.93 103.294 60.874 103.294H60.8781ZM60.4967 112.123H60.0607V104.43H60.4967C63.0329 104.43 65.2296 105.369 65.2296 108.279C65.2296 111.188 63.0371 112.127 60.4967 112.127V112.123ZM67.7784 113.263H68.969V107.075H67.7784V113.263ZM68.3695 103.416C67.9209 103.416 67.552 103.785 67.552 104.25C67.552 104.715 67.9209 105.055 68.3695 105.055C68.818 105.055 69.1911 104.698 69.1911 104.25C69.1911 103.801 68.8222 103.416 68.3695 103.416ZM84.6391 68.1473V90.6884H96.3268V88.3576H87.1502V68.1473H84.6391ZM62.6975 67.0406L52.2927 90.659H55.0427L57.7634 84.2619H67.3885L70.0505 90.659H72.8299L62.6933 67.0406H62.6975ZM58.7821 81.931L62.6388 72.9012L66.4034 81.931H58.7821ZM40.3115 68.1473H37.8005V90.6884H49.4881V88.3576H40.3115V68.1473ZM91.4178 113.473C92.5958 113.473 93.6522 112.798 94.4068 111.913L95.4926 113.263H97.0269L95.2411 111.054L96.4568 109.624L95.6645 108.803L94.5032 110.152L92.4281 107.641C93.2624 107.034 94.2391 106.279 94.2391 105.155C94.2391 103.847 93.1534 103.08 91.9376 103.08C90.6297 103.08 89.6362 103.885 89.6362 105.26C89.6362 106.107 90.1644 106.845 90.7345 107.44L90.1141 107.889C89.1625 108.576 88.3701 109.264 88.3701 110.534C88.3701 112.253 89.7577 113.468 91.422 113.468L91.4178 113.473ZM91.9083 104.061C92.5707 104.061 93.0695 104.443 93.0695 105.147C93.0695 105.851 92.382 106.283 91.879 106.681L91.7197 106.786L91.3885 106.363C91.0992 105.994 90.7932 105.621 90.7932 105.122C90.7932 104.489 91.3088 104.065 91.9041 104.065L91.9083 104.061ZM91.3382 108.425L91.4556 108.346L93.6648 111.041C93.0444 111.662 92.3024 112.362 91.3801 112.362C90.4578 112.362 89.5314 111.477 89.5314 110.526C89.5314 109.574 90.6549 108.899 91.3424 108.425H91.3382ZM104.954 84.2619H114.579L117.241 90.659H120.021L109.888 67.0406L99.4835 90.659H102.234L104.954 84.2619ZM109.825 72.9012L113.59 81.931H105.969L109.825 72.9012ZM21.1912 90.659H32.8789V88.3282H23.7023V79.4786H32.6106V77.1478H23.7023V70.4488H32.8789V68.118H21.1912V90.659ZM13.3687 83.4444L3.02672 68.118H0L15.8756 91.6777V91.6693L15.884 91.6777V68.118H13.3729V83.4444H13.3687ZM93.7109 129.612H94.9224V135.792H95.7567V128.816H94.193L93.7109 129.612ZM121.853 106.891C121.098 106.891 120.36 107.247 119.987 107.91H119.962V107.075H118.771V113.263H119.962V110.421C119.962 109.297 119.962 107.947 121.496 107.947C122.712 107.947 122.859 108.66 122.859 109.721V113.263H124.049V109.574C124.049 108.069 123.601 106.891 121.857 106.891H121.853ZM116.436 103.416C115.988 103.416 115.615 103.785 115.615 104.25C115.615 104.715 115.984 105.055 116.436 105.055C116.889 105.055 117.258 104.698 117.258 104.25C117.258 103.801 116.889 103.416 116.436 103.416ZM128.288 106.891C126.292 106.891 125.273 108.32 125.273 110.224C125.273 112.127 126.422 113.477 128.313 113.477C129.516 113.477 130.597 112.856 131.18 111.783L130.174 111.213C129.726 111.955 129.235 112.416 128.325 112.416C127.189 112.416 126.477 111.427 126.46 110.366H131.18V110.182C131.18 108.346 130.254 106.891 128.283 106.891H128.288ZM126.527 109.469C126.674 108.585 127.361 107.922 128.283 107.922C129.206 107.922 129.843 108.543 129.99 109.469H126.527ZM115.841 113.263H117.032V107.075H115.841V113.263ZM110.773 110.433L107.956 103.085L105.139 110.433L102.351 103.294H101.001L105.139 113.657L107.956 106.346L110.773 113.657L114.911 103.294H113.561L110.773 110.433ZM163.405 85.6075L145.827 67.1915V90.6884H148.339V73.3204L165.916 91.7071V68.1473H163.405V85.6075ZM73.7899 106.891C73.0353 106.891 72.2975 107.247 71.9244 107.91H71.8993V107.075H70.7087V113.263H71.8993V110.421C71.8993 109.297 71.8993 107.947 73.4336 107.947C74.6493 107.947 74.796 108.66 74.796 109.721V113.263H75.9866V109.574C75.9866 108.069 75.538 106.891 73.7941 106.891H73.7899ZM179.863 67.0699L169.459 90.6884H172.209L174.929 84.2912H184.554L187.216 90.6884H189.996L179.863 67.0699ZM175.948 81.9604L179.805 72.9305L183.573 81.9604H175.952H175.948ZM137.167 90.659H139.678V68.118H137.167V90.659ZM119.602 70.4488H125.043V90.659H127.554V70.4488H133.054V68.118H119.602V70.4488ZM84.3499 131.666L83.851 131.474C83.415 131.306 82.8784 131.021 82.8784 130.476C82.8784 129.864 83.4905 129.487 84.0439 129.487C84.5972 129.487 84.9033 129.709 85.1632 130.145L85.8549 129.73C85.4776 129.055 84.8362 128.673 84.0606 128.673C83.0042 128.673 82.0065 129.348 82.0065 130.476C82.0065 131.448 82.7275 131.901 83.524 132.241L84.0061 132.446C84.6098 132.698 85.2093 133.021 85.2093 133.771C85.2093 134.521 84.6727 135.129 83.9223 135.129C83.1719 135.129 82.564 134.576 82.5724 133.804L81.6921 133.989C81.8388 135.108 82.7191 135.942 83.8468 135.942C85.0961 135.942 86.077 135.037 86.077 133.767C86.077 132.601 85.3392 132.056 84.3457 131.666H84.3499ZM77.4077 135.792H81.1555V134.995H78.2797V132.358H81.0716V131.562H78.2797V129.608H81.1555V128.812H77.4077V135.787V135.792ZM112.341 120.461H77.2945V121.509H112.341V120.461ZM80.2458 113.473C81.4489 113.473 82.5305 112.852 83.1132 111.779L82.1071 111.209C81.6585 111.951 81.1681 112.412 80.2584 112.412C79.1223 112.412 78.4096 111.423 78.3929 110.362H83.1132V110.178C83.1132 108.341 82.1868 106.887 80.2206 106.887C78.2545 106.887 77.2065 108.316 77.2065 110.22C77.2065 112.123 78.3551 113.473 80.2458 113.473ZM80.2206 107.922C81.1723 107.922 81.7801 108.543 81.9268 109.469H78.4641C78.6109 108.585 79.2984 107.922 80.2206 107.922ZM111.309 132.174C111.884 131.851 112.228 131.293 112.228 130.61C112.228 129.474 111.339 128.669 110.228 128.669C109.117 128.669 108.228 129.474 108.228 130.61C108.228 131.293 108.572 131.851 109.142 132.174C108.421 132.425 108.04 133.1 108.04 133.846C108.04 135.142 109.037 135.938 110.224 135.938C111.41 135.938 112.408 135.142 112.408 133.846C112.408 133.096 112.031 132.421 111.305 132.174H111.309ZM109.046 130.61C109.046 129.944 109.599 129.407 110.232 129.407C110.865 129.407 111.414 129.944 111.414 130.61C111.414 131.163 110.815 131.792 110.232 131.792C109.649 131.792 109.046 131.163 109.046 130.61ZM110.228 135.163C109.545 135.163 108.878 134.551 108.878 133.851C108.878 133.109 109.524 132.538 110.228 132.538C110.932 132.538 111.578 133.113 111.578 133.851C111.578 134.588 110.911 135.163 110.228 135.163ZM105.998 132.174C106.572 131.851 106.912 131.293 106.912 130.61C106.912 129.474 106.023 128.669 104.916 128.669C103.81 128.669 102.917 129.474 102.917 130.61C102.917 131.293 103.261 131.851 103.831 132.174C103.11 132.425 102.732 133.1 102.732 133.846C102.732 135.142 103.73 135.938 104.916 135.938C106.103 135.938 107.101 135.142 107.101 133.846C107.101 133.096 106.719 132.421 105.998 132.174ZM103.734 130.61C103.734 129.944 104.288 129.407 104.916 129.407C105.545 129.407 106.099 129.944 106.099 130.61C106.099 131.163 105.499 131.792 104.916 131.792C104.334 131.792 103.734 131.163 103.734 130.61ZM104.916 135.163C104.233 135.163 103.567 134.551 103.567 133.851C103.567 133.109 104.212 132.538 104.916 132.538C105.621 132.538 106.266 133.113 106.266 133.851C106.266 134.588 105.6 135.163 104.916 135.163ZM99.8021 128.669C98.5361 128.669 97.5006 129.688 97.5006 130.962C97.5006 132.073 98.3684 133.109 99.5254 133.109C99.7644 133.109 99.9991 133.079 100.2 132.979L100.217 132.995L98.3558 135.502L98.9846 135.938L101.362 132.735C101.768 132.191 102.12 131.587 102.12 130.895C102.12 129.667 101.001 128.665 99.7979 128.665L99.8021 128.669ZM99.8105 132.371C99.0894 132.371 98.3307 131.742 98.3307 130.908C98.3307 130.073 99.0349 129.445 99.865 129.445C100.624 129.445 101.29 130.166 101.29 130.908C101.29 131.65 100.699 132.371 99.8105 132.371ZM86.4585 129.612H88.1144V135.792H88.9822V129.612H90.6381V128.816H86.4585V129.612ZM91.3046 134.865C91.007 134.865 90.768 135.117 90.768 135.402C90.768 135.687 91.007 135.938 91.3046 135.938C91.6023 135.938 91.8412 135.695 91.8412 135.402C91.8412 135.108 91.6023 134.865 91.3046 134.865Z" fill="white"/>
</g>
<defs>
<clipPath id="clip0_4401_18">
<rect width="190" height="135.938" fill="white"/>
</clipPath>
</defs>
</svg>
