<svg width="186" height="89" viewBox="0 0 186 89" fill="none" xmlns="http://www.w3.org/2000/svg">
<g clip-path="url(#clip0_4404_10)">
<path d="M145.819 0.304051H173.342V3.45702H145.819V0.304051ZM145.819 44.229H173.342V41.076H145.819V44.229ZM182.847 0.304051V44.2332H186V0.304051H182.847ZM43.8458 44.229H46.9988V0.304051H43.8458V44.2332V44.229ZM31.1381 44.229H34.2911V0.304051H31.1381V44.2332V44.229ZM0 44.229H3.15297V0.304051H0V44.2332V44.229ZM140.734 42.1465H143.887V2.38659H140.734V42.1506V42.1465ZM75.9128 25.4653L88.9869 44.7246L91.5984 42.9586L78.5243 23.6993L75.9128 25.4653ZM56.7326 44.229H59.8855V0.304051H56.7326V44.2332V44.229ZM86.9377 0L61.8348 37.2691L64.4505 39.0268L89.5534 1.75766L86.9377 0ZM147.756 20.6921V23.8451H166.841V20.6921H147.756ZM7.70123 5.47292L5.08556 7.23058L26.5815 39.0268L29.1972 37.2691L7.70123 5.47292ZM117.472 24.8864L130.917 44.7246L133.528 42.9586L120.083 23.1204L117.472 24.8864ZM98.6583 44.229H101.811V0.304051H98.6583V44.2332V44.229ZM128.863 0L103.102 38.2854L105.718 40.0431L131.479 1.75766L128.863 0Z" fill="white"/>
<path d="M43.8708 62.4137H45.2703V67.6076H45.9158V62.4137H47.332V61.814H43.875V62.4137H43.8708ZM50.7598 61.714C49.1063 61.714 47.7401 63.0593 47.7401 64.7212C47.7401 66.3831 49.1063 67.7117 50.7598 67.7117C52.4134 67.7117 53.7795 66.3914 53.7795 64.7212C53.7795 63.051 52.4092 61.714 50.7598 61.714ZM50.7598 67.1078C49.4437 67.1078 48.3857 66.0165 48.3857 64.7087C48.3857 63.4009 49.4312 62.3096 50.7598 62.3096C52.0885 62.3096 53.1339 63.3925 53.1339 64.7087C53.1339 66.0249 52.0718 67.1078 50.7598 67.1078ZM58.0904 64.6962V65.296H59.8106C59.8106 66.3706 58.7485 67.112 57.7447 67.112C57.1366 67.112 56.5243 66.7954 56.0995 66.3747C55.6705 65.9374 55.4247 65.3543 55.4247 64.7379C55.4247 63.43 56.4702 62.3179 57.7905 62.3179C58.6443 62.3179 59.2982 62.7261 59.7814 63.4092L60.2521 62.9719C59.6356 62.1722 58.8151 61.7182 57.7988 61.7182C56.1286 61.7182 54.7791 63.0718 54.7791 64.7295C54.7791 66.3872 56.1328 67.7117 57.7613 67.7117C58.5694 67.7117 59.3774 67.3577 59.9063 66.7413C60.4353 66.1248 60.5228 65.4792 60.5061 64.6962H58.0945H58.0904ZM61.8348 67.6076H64.8378V67.0078H62.4804V64.7337H64.7712V64.1339H62.4804V62.4137H64.8378V61.814H61.8348V67.6076ZM65.8541 62.4137H67.2535V67.6076H67.8991V62.4137H69.3153V61.814H65.8582V62.4137H65.8541ZM73.9885 64.1631H71.0229V61.8098H70.3774V67.6034H71.0229V64.7587H73.9885V67.6034H74.6341V61.8098H73.9885V64.1631ZM76.2793 67.6076H79.2823V67.0078H76.9207V64.7337H79.2115V64.1339H76.9207V62.4137H79.2823V61.814H76.2793V67.6076ZM83.614 63.4134C83.614 62.1055 82.5935 61.814 81.494 61.814H80.6568V67.6076H81.3024V65.0627H81.4648L83.2183 67.6076H84.0097L82.1645 65.0086C83.0559 64.9336 83.6181 64.3005 83.6181 63.4092L83.614 63.4134ZM81.2982 64.4963V62.4137H81.4898C82.2645 62.4137 82.9642 62.5054 82.9642 63.4592C82.9642 64.3588 82.227 64.4963 81.4981 64.4963H81.2982ZM87.6041 62.4137H89.0036V67.6076H89.6492V62.4137H91.0653V61.814H87.6083V62.4137H87.6041ZM91.1195 67.6076H91.8275L92.5273 65.9624H95.0013L95.6844 67.6076H96.4008L93.7934 61.5349L91.1195 67.6076ZM92.7855 65.3626L93.7768 63.0427L94.7472 65.3626H92.7855ZM99.2913 64.288L98.9082 64.1173C98.5166 63.9423 98.0002 63.7091 98.0002 63.2093C98.0002 62.6803 98.4458 62.3096 98.9623 62.3096C99.4788 62.3096 99.7328 62.5387 99.9619 62.9385L100.478 62.6095C100.17 62.0389 99.6246 61.7098 98.979 61.7098C98.1168 61.7098 97.3588 62.2846 97.3588 63.1843C97.3588 64.0131 97.9419 64.3588 98.6208 64.667L98.9748 64.8212C99.5121 65.0669 100.045 65.296 100.045 65.9749C100.045 66.6538 99.4746 67.1036 98.854 67.1036C98.2334 67.1036 97.7794 66.6205 97.692 66.029L97.063 66.204C97.2463 67.1036 97.9377 67.7034 98.8707 67.7034C99.8786 67.7034 100.691 66.9287 100.691 65.9124C100.691 64.9919 100.054 64.6129 99.2997 64.2839L99.2913 64.288ZM101.482 62.4137H102.882V67.6076H103.527V62.4137H104.943V61.814H101.486V62.4137H101.482ZM105.989 67.6076H108.996V67.0078H106.634V64.7337H108.925V64.1339H106.634V62.4137H108.996V61.814H105.989V67.6076ZM112.211 64.288L111.828 64.1173C111.437 63.9423 110.92 63.7091 110.92 63.2093C110.92 62.6803 111.366 62.3096 111.882 62.3096C112.399 62.3096 112.653 62.5387 112.882 62.9385L113.398 62.6095C113.09 62.0389 112.545 61.7098 111.899 61.7098C111.037 61.7098 110.279 62.2846 110.279 63.1843C110.279 64.0131 110.862 64.3588 111.541 64.667L111.895 64.8212C112.432 65.0669 112.965 65.296 112.965 65.9749C112.965 66.6538 112.395 67.1036 111.774 67.1036C111.153 67.1036 110.7 66.6205 110.612 66.029L109.983 66.204C110.166 67.1036 110.858 67.7034 111.791 67.7034C112.799 67.7034 113.611 66.9287 113.611 65.9124C113.611 64.9919 112.974 64.6129 112.22 64.2839L112.211 64.288ZM120.158 64.5129C120.55 64.2505 120.729 63.8507 120.729 63.3842C120.729 62.2013 119.846 61.8181 118.792 61.8181H117.838V67.6118H119.184C120.329 67.6118 121.258 67.1494 121.258 65.9957C121.258 65.3043 120.85 64.6795 120.158 64.5129ZM118.484 62.4137H118.738C119.529 62.4137 120.083 62.5054 120.083 63.3842C120.083 64.263 119.463 64.3672 118.73 64.3672H118.484V62.4137ZM119.13 67.0078H118.484V64.917H119.046C119.754 64.917 120.612 65.0461 120.612 65.9457C120.612 66.8454 119.85 67.0078 119.13 67.0078ZM122.603 67.6076H125.606V67.0078H123.245V64.7337H125.536V64.1339H123.245V62.4137H125.606V61.814H122.603V67.6076ZM126.623 62.4137H128.022V67.6076H128.668V62.4137H131.292V67.6076H131.937V62.4137H133.353V61.814H126.623V62.4137ZM134.403 67.6076H137.41V67.0078H135.053V64.7337H137.344V64.1339H135.053V62.4137H137.41V61.814H134.403V67.6076ZM140.28 65.0086C141.171 64.9336 141.734 64.3005 141.734 63.4092C141.734 62.1014 140.713 61.8098 139.613 61.8098H138.776V67.6034H139.422V65.0586H139.584L141.338 67.6034H142.129L140.284 65.0044L140.28 65.0086ZM139.422 64.4963V62.4137H139.613C140.388 62.4137 141.088 62.5054 141.088 63.4592C141.088 64.3588 140.351 64.4963 139.622 64.4963H139.422Z" fill="white"/>
<path d="M142.125 73.4971H43.8708V74.0885H142.125V73.4971Z" fill="white"/>
<path d="M104.419 80.0195H93.0062V87.6291H104.419V80.0195Z" fill="white"/>
<path d="M89.2036 80.0195H85.3967V87.6291H89.2036V80.0195Z" fill="white"/>
<path d="M98.7707 86.5171C100.28 86.5171 101.503 85.2938 101.503 83.7848C101.503 82.2758 100.28 81.0525 98.7707 81.0525C97.2617 81.0525 96.0385 82.2758 96.0385 83.7848C96.0385 85.2938 97.2617 86.5171 98.7707 86.5171Z" fill="#E4002B"/>
<path d="M85.3967 80.0195H81.5898V87.6291H85.3967V80.0195Z" fill="#E4002B"/>
<path d="M93.0062 80.0195H89.1993V87.6291H93.0062V80.0195Z" fill="#E4002B"/>
</g>
<defs>
<clipPath id="clip0_4404_10">
<rect width="186" height="88.2206" fill="white"/>
</clipPath>
</defs>
</svg>
